<svg width="40" height="40" viewBox="0 0 40 40" fill="none" xmlns="http://www.w3.org/2000/svg">
<path d="M7.5 17.5C6.125 17.5 5 18.625 5 20C5 21.375 6.125 22.5 7.5 22.5C8.875 22.5 10 21.375 10 20C10 18.625 8.875 17.5 7.5 17.5ZM32.5 17.5C31.125 17.5 30 18.625 30 20C30 21.375 31.125 22.5 32.5 22.5C33.875 22.5 35 21.375 35 20C35 18.625 33.875 17.5 32.5 17.5ZM20 17.5C18.625 17.5 17.5 18.625 17.5 20C17.5 21.375 18.625 22.5 20 22.5C21.375 22.5 22.5 21.375 22.5 20C22.5 18.625 21.375 17.5 20 17.5Z" fill="black"/>
</svg>
