<svg width="40" height="40" viewBox="0 0 40 40" fill="none" xmlns="http://www.w3.org/2000/svg">
<path d="M13.9999 28.3335L19.9999 22.3335L25.9999 28.3335L28.3333 26.0002L22.3333 20.0002L28.3333 14.0002L25.9999 11.6668L19.9999 17.6668L13.9999 11.6668L11.6666 14.0002L17.6666 20.0002L11.6666 26.0002L13.9999 28.3335ZM19.9999 36.6668C17.6944 36.6668 15.5277 36.2291 13.4999 35.3535C11.4721 34.4779 9.70825 33.2907 8.20825 31.7918C6.70825 30.2918 5.52103 28.5279 4.64659 26.5002C3.77214 24.4724 3.33436 22.3057 3.33325 20.0002C3.33325 17.6946 3.77103 15.5279 4.64659 13.5002C5.52214 11.4724 6.70936 9.7085 8.20825 8.2085C9.70825 6.7085 11.4721 5.52127 13.4999 4.64683C15.5277 3.77239 17.6944 3.33461 19.9999 3.3335C22.3055 3.3335 24.4721 3.77127 26.4999 4.64683C28.5277 5.52239 30.2916 6.70961 31.7916 8.2085C33.2916 9.7085 34.4794 11.4724 35.3549 13.5002C36.2305 15.5279 36.6677 17.6946 36.6666 20.0002C36.6666 22.3057 36.2288 24.4724 35.3533 26.5002C34.4777 28.5279 33.2905 30.2918 31.7916 31.7918C30.2916 33.2918 28.5277 34.4796 26.4999 35.3552C24.4721 36.2307 22.3055 36.6679 19.9999 36.6668Z" fill="black"/>
</svg>
