<svg width="24" height="24" viewBox="0 0 24 24" fill="none" xmlns="http://www.w3.org/2000/svg">
<g clip-path="url(#clip0_766_81)">
<path fill-rule="evenodd" clip-rule="evenodd" d="M12.7071 15.7069C12.5196 15.8943 12.2653 15.9996 12.0001 15.9996C11.7349 15.9996 11.4806 15.8943 11.2931 15.7069L5.6361 10.0499C5.54059 9.95761 5.46441 9.84726 5.412 9.72526C5.35959 9.60326 5.332 9.47204 5.33085 9.33926C5.32969 9.20648 5.355 9.0748 5.40528 8.9519C5.45556 8.829 5.52981 8.71735 5.6237 8.62346C5.7176 8.52957 5.82925 8.45531 5.95214 8.40503C6.07504 8.35475 6.20672 8.32945 6.3395 8.3306C6.47228 8.33176 6.6035 8.35934 6.7255 8.41175C6.84751 8.46416 6.95785 8.54034 7.0501 8.63585L12.0001 13.5859L16.9501 8.63585C17.1387 8.4537 17.3913 8.3529 17.6535 8.35518C17.9157 8.35746 18.1665 8.46263 18.3519 8.64804C18.5373 8.83344 18.6425 9.08426 18.6448 9.34645C18.6471 9.60865 18.5463 9.86125 18.3641 10.0499L12.7071 15.7069Z" fill="black"/>
</g>
<defs>
<clipPath id="clip0_766_81">
<rect width="24" height="24" fill="white"/>
</clipPath>
</defs>
</svg>
