<svg width="40" height="40" viewBox="0 0 40 40" fill="none" xmlns="http://www.w3.org/2000/svg">
<path fill-rule="evenodd" clip-rule="evenodd" d="M26.6668 14.9997C26.6668 16.7678 25.9645 18.4635 24.7142 19.7137C23.464 20.964 21.7683 21.6663 20.0002 21.6663C18.2321 21.6663 16.5364 20.964 15.2861 19.7137C14.0359 18.4635 13.3335 16.7678 13.3335 14.9997C13.3335 13.2316 14.0359 11.5359 15.2861 10.2856C16.5364 9.03539 18.2321 8.33301 20.0002 8.33301C21.7683 8.33301 23.464 9.03539 24.7142 10.2856C25.9645 11.5359 26.6668 13.2316 26.6668 14.9997ZM23.3335 14.9997C23.3335 15.8837 22.9823 16.7316 22.3572 17.3567C21.7321 17.9818 20.8842 18.333 20.0002 18.333C19.1161 18.333 18.2683 17.9818 17.6431 17.3567C17.018 16.7316 16.6668 15.8837 16.6668 14.9997C16.6668 14.1156 17.018 13.2678 17.6431 12.6427C18.2683 12.0175 19.1161 11.6663 20.0002 11.6663C20.8842 11.6663 21.7321 12.0175 22.3572 12.6427C22.9823 13.2678 23.3335 14.1156 23.3335 14.9997Z" fill="black"/>
<path fill-rule="evenodd" clip-rule="evenodd" d="M20.0001 1.6665C9.87508 1.6665 1.66675 9.87484 1.66675 19.9998C1.66675 30.1248 9.87508 38.3332 20.0001 38.3332C30.1251 38.3332 38.3334 30.1248 38.3334 19.9998C38.3334 9.87484 30.1251 1.6665 20.0001 1.6665ZM5.00008 19.9998C5.00008 23.4832 6.18841 26.6898 8.18008 29.2365C9.5788 27.3997 11.3832 25.9111 13.4525 24.887C15.5217 23.863 17.7997 23.3312 20.1084 23.3332C22.3873 23.331 24.6366 23.849 26.685 24.8478C28.7333 25.8466 30.5267 27.2997 31.9284 29.0965C33.3725 27.2025 34.3448 24.9919 34.7649 22.6475C35.185 20.3031 35.0408 17.8924 34.3442 15.6148C33.6477 13.3372 32.4188 11.2583 30.7592 9.5499C29.0997 7.84155 27.0572 6.55294 24.8007 5.79069C22.5443 5.02843 20.1387 4.81446 17.7832 5.16646C15.4276 5.51846 13.1897 6.42632 11.2547 7.81493C9.31966 9.20353 7.7431 11.033 6.65546 13.1518C5.56783 15.2707 5.00038 17.6181 5.00008 19.9998ZM20.0001 34.9998C16.5567 35.005 13.2172 33.8204 10.5467 31.6465C11.6216 30.1077 13.0523 28.8514 14.7171 27.9843C16.3818 27.1173 18.2314 26.6652 20.1084 26.6665C21.962 26.665 23.7892 27.1058 25.4383 27.9522C27.0874 28.7986 28.5107 30.0263 29.5901 31.5332C26.8989 33.7777 23.5044 35.0048 20.0001 34.9998Z" fill="black"/>
</svg>
