<svg width="50" height="50" viewBox="0 0 50 50" fill="none" xmlns="http://www.w3.org/2000/svg">
<path d="M40.625 7.81252V39.0625C40.625 39.8913 40.2958 40.6862 39.7097 41.2722C39.1237 41.8583 38.3288 42.1875 37.5 42.1875H6.25002C5.63193 42.1872 5.0278 42.0037 4.51405 41.66C4.00029 41.3164 3.59998 40.8281 3.36373 40.2569C3.12749 39.6858 3.06593 39.0574 3.18684 38.4512C3.30774 37.8451 3.60569 37.2884 4.04299 36.8516L35.293 5.60158C35.7302 5.16539 36.2869 4.86854 36.8928 4.74853C37.4986 4.62852 38.1265 4.69072 38.697 4.92729C39.2675 5.16386 39.7551 5.56418 40.0983 6.07769C40.4414 6.59121 40.6247 7.1949 40.625 7.81252Z" fill="black"/>
</svg>
