<svg width="50" height="50" viewBox="0 0 50 50" fill="none" xmlns="http://www.w3.org/2000/svg">
<path opacity="0.2" d="M39.0628 7.81251V39.0625C39.0628 39.4769 38.8981 39.8743 38.6051 40.1674C38.3121 40.4604 37.9147 40.625 37.5003 40.625H6.25025C5.94104 40.6253 5.63871 40.5337 5.38153 40.3621C5.12435 40.1904 4.92389 39.9463 4.80553 39.6606C4.68717 39.375 4.65622 39.0606 4.71661 38.7573C4.77701 38.4541 4.92602 38.1756 5.14479 37.957L36.3948 6.70704C36.6133 6.48827 36.8918 6.33926 37.1951 6.27887C37.4983 6.21848 37.8127 6.24942 38.0984 6.36779C38.384 6.48615 38.6281 6.68661 38.7998 6.94379C38.9715 7.20097 39.063 7.5033 39.0628 7.81251Z" fill="black"/>
<path d="M38.6953 4.92776C38.1244 4.69089 37.496 4.62866 36.8897 4.74895C36.2834 4.86924 35.7264 5.16664 35.2891 5.60354L4.03908 36.8535C3.60222 37.2907 3.30478 37.8476 3.18438 38.4537C3.06399 39.0599 3.12604 39.6882 3.36268 40.2591C3.59933 40.83 3.99995 41.318 4.51388 41.6612C5.02782 42.0045 5.632 42.1876 6.25002 42.1875H37.5C38.3288 42.1875 39.1237 41.8583 39.7097 41.2722C40.2958 40.6862 40.625 39.8913 40.625 39.0625V7.81252C40.6261 7.19444 40.4431 6.59004 40.0995 6.0763C39.7558 5.56256 39.267 5.16274 38.6953 4.92776ZM37.5 39.0625H6.25002L37.5 7.81252V39.0625Z" fill="black"/>
</svg>
