<svg width="50" height="50" viewBox="0 0 50 50" fill="none" xmlns="http://www.w3.org/2000/svg">
<path d="M37.1312 10.7188L39.1391 8.325C37.1994 6.68313 34.9881 5.39241 32.6047 4.51094L31.5375 7.44531C33.5782 8.20223 35.4712 9.31103 37.1312 10.7188ZM43.4531 21.875L46.5281 21.2297C46.0957 18.7333 45.2295 16.3319 43.9687 14.1344L41.2641 15.625C42.3436 17.5688 43.0839 19.6824 43.4531 21.875ZM31.5375 42.5547L32.6047 45.4891C34.988 44.6081 37.1993 43.3179 39.1391 41.6766L37.1312 39.2828C35.4712 40.6905 33.5782 41.7978 31.5375 42.5547ZM41.2641 34.375L43.9687 35.9375C45.23 33.7145 46.096 31.2894 46.5281 28.7703L43.4531 28.2281C43.0836 30.3881 42.343 32.4677 41.2641 34.375ZM25 46.875V3.125C19.1984 3.125 13.6344 5.42968 9.53204 9.53204C5.42968 13.6344 3.125 19.1984 3.125 25C3.125 30.8016 5.42968 36.3656 9.53204 40.468C13.6344 44.5703 19.1984 46.875 25 46.875Z" fill="#FFD233"/>
</svg>
